<svg width="1024" height="450" viewBox="0 500 1024 5" fill="none" xmlns="http://www.w3.org/2000/svg">
<path fill-rule="evenodd" clip-rule="evenodd" d="M255.531 307.113C236.359 309.906 213.951 322.261 196.248 339.801C181.9 354.017 161.622 380.128 123.87 433C93.311 475.799 83.979 490.454 77.609 505.648C68.64 527.043 65.034 554.732 68.053 579.026C71.489 606.683 89.788 637.252 114.387 656.43C136.321 673.532 162.544 685.36 190.997 690.986C213.025 695.342 224.328 696.367 242.5 695.656C288.539 693.856 314.127 684.351 336.592 660.708C354.015 642.371 359.963 626.991 358.716 603.5C357.642 583.253 348.312 563.356 329.812 541.861C326.615 538.147 324 534.74 324 534.288C324 533.837 326.74 528.75 330.088 522.984C347.897 492.316 358.729 464.671 365.071 433.701C367.638 421.169 367.817 402.388 365.487 390.186C362.597 375.056 355.527 358.016 346.895 345.378C340.197 335.571 325.183 322.657 313.774 316.89C297.132 308.478 273.452 304.503 255.531 307.113ZM253.644 313.53C245.206 315.128 233.274 319.524 226 323.715C212.718 331.368 188.527 354.335 174.148 372.945C165.67 383.917 165.831 381.489 172.122 403.5C175.711 416.059 181.534 432.04 186.831 443.872L188.734 448.121L199.848 432.81C205.961 424.39 214.742 412.638 219.362 406.695C226.729 397.218 227.911 395.127 228.978 389.695C235.199 358.023 253.993 330.938 279.031 317.56C286.455 313.593 285.807 313.151 271.623 312.503C264.987 312.201 258.794 312.554 253.644 313.53ZM285.828 320.381C274.85 324.896 258.68 338.866 250.298 351.077C245.791 357.642 239.398 370.819 237.446 377.566C236.501 380.83 235.485 384.175 235.186 385C234.888 385.825 239.164 382.181 244.689 376.902C264.826 357.661 287.999 345.727 309.5 343.524C318.037 342.649 330.187 345.034 338.048 349.127C341.597 350.974 344.935 352.671 345.466 352.898C347.699 353.852 335.36 340.036 329.197 334.683C320.756 327.351 313.227 322.756 305.282 320.088C297.323 317.416 292.873 317.483 285.828 320.381ZM303 350.496C295.94 351.917 285.925 355.467 278.975 359.013L274.584 361.253L279.501 363.752C285.984 367.046 293.83 375.221 297.26 382.254C301.78 391.525 303.336 399.226 303.269 412C303.164 432.162 297.409 454.019 286.105 477.196L280.152 489.403L287.006 496.952C296.199 507.075 319.841 530.516 320.288 529.951C322.305 527.398 331.364 510.458 337.048 498.611C354.616 461.991 361.464 436.77 361.378 409C361.339 396.474 360.968 393.165 358.655 384.695C353.965 367.519 349.883 361.296 339.478 355.461C328.703 349.417 316.567 347.766 303 350.496ZM261.407 369.865C257.608 372.541 249.62 379.628 243.656 385.615L232.811 396.5L233.312 409C233.587 415.875 234.531 424.2 235.409 427.5C237.719 436.181 246.069 452.572 252.805 461.649C257.878 468.483 274.238 485 275.936 485C277.135 485 287.848 460.246 291.299 449.5C296.414 433.575 298 424.642 298 411.752C298 393.899 294.274 383.271 284.961 374.56C280.754 370.626 271.474 365 269.19 365C268.708 365 265.206 367.189 261.407 369.865ZM154.303 399.757C145.777 411.143 140.952 417.821 118.724 449C82.308 500.081 72.977 521.492 73.013 553.881C73.047 584.062 82.777 602.345 104.661 613.349C115.934 619.017 137.004 622.426 149.334 620.577L154.027 619.873L149.164 614.187C134.614 597.173 128.632 582.164 128.761 563C128.858 548.645 131.323 539.724 139.952 522.5C148.631 505.178 157.057 491.703 172.868 469.86L185.116 452.938L179.62 439.719C173.667 425.401 170.514 416.264 165.946 400.086C164.329 394.358 162.857 389.524 162.676 389.343C162.495 389.161 158.727 393.848 154.303 399.757ZM216.943 418.5C201.392 439.124 192 452.549 192 454.154C192 456.427 206.841 480.628 214.775 491.293C221.628 500.506 231.376 511.852 244.044 525.363L249.589 531.276L255.151 521.888C258.21 516.725 263.561 507.358 267.042 501.074L273.371 489.648L267.935 485.115C258.974 477.641 252.177 470.037 245.43 459.937C233.99 442.809 229.316 430.267 228.136 413.532L227.5 404.5L216.943 418.5ZM434.273 432.131C420.836 435.239 418.056 454.167 430.046 460.906C434.674 463.507 442.183 463.659 446.98 461.248C457.318 456.055 457.88 440.968 448 433.894C444.758 431.573 439.569 430.906 434.273 432.131ZM769.667 431.667C769.3 432.033 769 466.458 769 508.167V584H781.5H794V507.5V431H782.167C775.658 431 770.033 431.3 769.667 431.667ZM844 432.812C836.851 435.194 834.634 436.432 829.954 440.66C824.155 445.899 822 452.64 822 465.538V476H817.64C815.241 476 811.304 476.27 808.89 476.6L804.5 477.199L804.812 488.1L805.125 499H813.562H822V541.5V584H834H846V541.5V499H858.5H871V487.5V476H858.5H846V468.95C846 456.329 850.073 452.469 863.25 452.599L871 452.676V442.945C871 431.454 871.543 431.956 858.5 431.378C851.616 431.073 848.207 431.41 844 432.812ZM774.61 436.821C774.331 437.273 774.192 469.336 774.301 508.071L774.5 578.5L781.75 578.794L789 579.088V507.544V436H782.059C778.241 436 774.89 436.37 774.61 436.821ZM851 436.691C844.813 437.727 838.414 440.534 834.799 443.8C828.27 449.699 827.571 451.824 827.005 467.496L826.5 481.491L818 481.496L809.5 481.5V487.5V493.5L818.25 493.154L827 492.809V535.904V579H834H841L840.999 536.25L840.998 493.5H853.749H866.5L866.8 487.75L867.1 482H853.947H840.794L841.164 469.75C841.464 459.825 841.892 456.967 843.42 454.692C846.095 450.71 852.415 447.817 859.721 447.23L866 446.726V441.98C866 437.903 865.683 437.148 863.75 436.63C861.331 435.982 855.056 436.012 851 436.691ZM431.306 439.413C428.845 441.53 428.5 442.524 428.5 447.5C428.5 452.476 428.845 453.47 431.306 455.587C436.354 459.929 446.219 458.205 448.805 452.528C450.943 447.836 450.3 443.146 447.077 439.923C443.136 435.982 435.579 435.738 431.306 439.413ZM599 462V477H591.125C586.794 477 581.844 477.281 580.125 477.625L577 478.25V488.625V499H587.927H598.855L599.179 531.75C599.496 563.794 599.555 564.614 601.893 569.794C604.788 576.204 610.49 581.317 617.391 583.69C622.818 585.556 640.003 586.198 645.25 584.731L648 583.962V574.1V564.239L638.475 563.822C629.715 563.439 628.732 563.187 626.225 560.681L623.5 557.957L623.174 528.51L622.848 499.063L635.174 498.781L647.5 498.5L647.783 487.25L648.066 476H635.533H623V461.5V447H611H599V462ZM604 467V482H593H582V488V494H592.952H603.905L604.202 529.25C604.492 563.56 604.56 564.612 606.741 568.692C611.532 577.655 623.004 582.124 637.036 580.496L643 579.804V574.546V569.289L635.617 568.73C626.891 568.07 622.682 566.151 620.267 561.733C618.7 558.866 618.466 554.825 618.199 526L617.897 493.5L630.449 493.807L643 494.114V488.057V482H630.5H618V467V452H611H604V467ZM177.968 472.152C154.251 505.494 140.173 530.056 135.944 545.47C134.096 552.209 133.841 555.233 134.219 565.938C134.613 577.11 135.016 579.4 137.858 586.632C141.479 595.843 148.427 606.197 155.798 613.365L160.801 618.229L167.651 615.991C183.485 610.816 196.879 601.589 209.834 586.93C220.481 574.884 229.672 562.599 239.269 547.586L246.886 535.673L237.8 526.086C219.27 506.536 204.369 487.082 194.288 469.28C191.104 463.659 188.235 459.046 187.912 459.03C187.588 459.013 183.113 464.918 177.968 472.152ZM512.265 478.542C509.385 479.317 504.773 481.095 502.015 482.493L497 485.034V482.017V479H485H473V531.5V584H485H497V546.155C497 511.162 497.134 508.189 498.777 506.702C501.846 503.924 511.861 499.844 518.307 498.745C530.067 496.739 538.373 499.756 542.413 507.5C544.399 511.307 544.514 513.252 544.797 547.75L545.093 584H557.047H569V547.049C569 523.525 568.592 508.173 567.877 504.799C565.03 491.368 556.797 482.676 543.068 478.609C536.3 476.604 519.596 476.567 512.265 478.542ZM689.265 478.542C680.912 480.791 673.939 484.85 668 490.92C646.836 512.549 646.655 548.613 667.605 569.624C678.43 580.481 695.708 586.916 710.286 585.521C728.566 583.772 741.18 577.398 751.065 564.918L754.006 561.205L744.88 554.411C736.145 547.907 735.694 547.699 734.35 549.558C730.782 554.492 724.396 560.122 719.728 562.448C712.74 565.93 702.694 566.009 695.5 562.637C687.016 558.661 677.089 546.097 677.022 539.25L677 537H716.644H756.288L755.602 528.776C755.224 524.252 754.427 518.515 753.829 516.026C749.523 498.099 734.966 483.091 717.458 478.531C710.222 476.646 696.283 476.652 689.265 478.542ZM427 531.469V584H439.509H452.018L451.759 531.75L451.5 479.5L439.25 479.219L427 478.938V531.469ZM878 480.802C878 481.6 896.024 528.915 910.139 565.169L916.24 580.839L911.858 589.169C908.001 596.505 906.911 597.782 902.737 599.857C898.262 602.082 897.435 602.165 887.998 601.331L878 600.448V611.755C878 621.584 878.229 623.157 879.75 623.781C880.712 624.177 887.125 624.493 894 624.485C905.204 624.472 907.019 624.217 911.5 622.03C918.651 618.538 927.053 609.785 930.727 602C932.414 598.425 939.649 579.975 946.804 561C959.019 528.611 971.05 497.249 975.876 485.22L977.994 479.94L965.389 480.22L952.783 480.5L940.987 512.821C934.499 530.598 928.972 545.361 928.705 545.628C928.134 546.199 926.246 541.3 913.626 506.5L904.198 480.5L891.099 480.221C883.895 480.068 878 480.329 878 480.802ZM514.265 483.475C508.723 485.038 500.266 489.011 495.846 492.128C494.386 493.158 492.923 494 492.596 494C492.268 494 492 491.828 492 489.173V484.347L485.003 484.423L478.005 484.5L478.003 531.75L478 579H485H492V542.687V506.374L494.75 503.759C496.262 502.32 499.934 499.927 502.909 498.439C518.647 490.571 535.455 491.227 543.398 500.019C549.503 506.776 550 510.291 550 546.682V579H557.046H564.092L563.796 542.25L563.5 505.5L560.72 499.839C557.5 493.281 551.679 487.63 545.186 484.758C539.093 482.063 521.813 481.346 514.265 483.475ZM693.236 483.06C680.823 485.507 667.7 495.86 662.436 507.36C659.361 514.075 657.041 524.646 657.017 532.04C656.966 548.456 667.091 565.56 682.025 574.283C700.228 584.916 729.185 580.835 743.957 565.554L747.414 561.978L744.996 560.239C743.667 559.283 741.301 557.6 739.738 556.5L736.898 554.5L730.674 560.579C723.166 567.913 717.937 570 707.072 569.999C700.828 569.999 698.447 569.5 693.5 567.157C681.835 561.633 673.092 549.755 671.486 537.25L670.812 532H710.956H751.099L750.432 525.75C748.631 508.877 738.96 493.632 725.78 486.893C717.159 482.484 704.012 480.935 693.236 483.06ZM432 531.456V579H439H446V532.5C446 506.925 446.113 485.663 446.25 485.25C446.387 484.837 443.238 484.368 439.25 484.206L432 483.912V531.456ZM885 485.813C885 486.26 893.1 507.457 903 532.917C912.9 558.377 921 579.88 921 580.701C921 583.374 912.695 598.239 909.311 601.622C904.995 605.938 899.394 607.392 890.25 606.569L883 605.917V612.958V620H892.462C904.768 620 910.909 617.806 917.751 610.963C924.667 604.047 927.411 598.391 938.835 567.5C944.327 552.65 953.586 528.357 959.41 513.516C965.235 498.674 970 486.187 970 485.766C970 485.344 966.902 485 963.117 485C957.423 485 956.145 485.302 955.721 486.75C954.624 490.496 929.94 557.286 929.093 558.798C927.956 560.831 928.475 562.106 912.991 519.25L900.616 485H892.808C888.514 485 885 485.366 885 485.813ZM698.267 492.12C685.44 494.453 674.407 505.812 672.403 518.75L671.744 523H703.872H736V520.678C736 511.847 726.369 499.19 716.282 494.766C709.575 491.825 704.219 491.038 698.267 492.12ZM272.681 501.79C270.226 506.03 264.879 515.357 260.797 522.515L253.376 535.529L261.781 544.962C272.694 557.208 278.384 564.656 284.124 574.206L288.788 581.966L302.898 558.78L317.008 535.594L303.221 521.547C295.637 513.821 286.668 504.48 283.288 500.79L277.143 494.08L272.681 501.79ZM693.5 499.157C686.612 502.718 678 512.16 678 516.15C678 517.903 679.37 518 704 518C721.487 518 730 517.656 730 516.95C730 514.984 726.895 509.889 723.193 505.783C715.675 497.443 702.501 494.503 693.5 499.157ZM242.423 552.343C225.312 578.53 207.895 598.948 194.5 608.523C187.329 613.649 176.401 619.366 170.368 621.147C167.965 621.856 166 622.691 166 623.002C166 623.313 172.863 628.116 181.25 633.674C196.093 643.511 207.685 649.897 217.14 653.446C222.706 655.535 223.057 655.395 234.5 646.48C249.76 634.592 265.944 616.209 280.511 594.219L285.334 586.939L283.017 582.719C276.726 571.26 267.786 559.299 255.3 545.638L250.346 540.218L242.423 552.343ZM305.79 564.062L291.359 588.313L293.668 594.03C303.119 617.429 301.712 639.975 289.586 659.405C283.577 669.035 275.083 678.188 266.678 684.09C262.832 686.791 260.353 689 261.168 689C264.728 689 285.074 684.875 291 682.951C309.853 676.832 332.821 659.667 342.751 644.275C353.81 627.133 356.797 606.461 350.955 587.5C346.588 573.327 334.651 553.769 324.196 543.655L320.222 539.811L305.79 564.062ZM277.187 608.334C261.273 630.71 250.593 642.028 234.768 653.289C231.615 655.533 229.216 657.55 229.437 657.77C230.156 658.489 249.293 663.137 257.5 664.585C261.9 665.362 268.28 665.998 271.677 665.999C277.546 666 278.002 665.821 280.801 662.426C285.719 656.458 291.976 642.828 293.763 634.187C295.186 627.304 295.255 624.819 294.245 616.827C293.145 608.125 289.961 596.561 288.172 594.772C287.741 594.341 282.798 600.444 277.187 608.334ZM77.631 598.5C83.827 614.285 96 632.115 108.725 644.045C134.71 668.404 155.336 676.346 180.238 671.581C187.696 670.155 204.151 664.452 211.396 660.783L215.292 658.81L206.296 654.535C196.416 649.84 179.393 639.328 167.865 630.802L160.463 625.328L144.482 625.743C129.773 626.125 127.704 625.953 118.509 623.576C103.628 619.729 95.224 615.356 87.21 607.288C83.502 603.555 79.476 599.15 78.264 597.5L76.061 594.5L77.631 598.5ZM216.83 664.525C203.039 671.707 181.811 677.982 171.141 678.03C162.415 678.07 164.19 678.971 181.599 683.337C200.72 688.133 214.922 690.145 231 690.338C243.701 690.49 244.836 690.343 250.168 687.843C256.85 684.71 266.561 678.235 269.778 674.767L272.056 672.311L263.583 671.126C258.922 670.474 247.861 668.154 239.002 665.97C230.143 663.787 222.581 662.021 222.197 662.047C221.814 662.072 219.398 663.188 216.83 664.525Z" fill="white"/>
</svg>
